<?xml version="1.0" encoding="UTF-8" standalone="no"?>
<svg
   xmlns:dc="http://purl.org/dc/elements/1.1/"
   xmlns:cc="http://creativecommons.org/ns#"
   xmlns:rdf="http://www.w3.org/1999/02/22-rdf-syntax-ns#"
   xmlns:svg="http://www.w3.org/2000/svg"
   xmlns="http://www.w3.org/2000/svg"
   viewBox="0 0 453.54266 453.54266"
   height="453.54266"
   width="453.54266"
   xml:space="preserve"
   id="svg2"
   version="1.1"><metadata
     id="metadata8"><rdf:RDF><cc:Work
         rdf:about=""><dc:format>image/svg+xml</dc:format><dc:type
           rdf:resource="http://purl.org/dc/dcmitype/StillImage" /></cc:Work></rdf:RDF></metadata><defs
     id="defs6"><clipPath
       id="clipPath18"
       clipPathUnits="userSpaceOnUse"><path
         id="path16"
         d="M 0,340.157 H 340.157 V 0 H 0 Z" /></clipPath></defs><g
     transform="matrix(1.3333333,0,0,-1.3333333,0,453.54267)"
     id="g10"><g
       id="g12"><g
         clip-path="url(#clipPath18)"
         id="g14"><g
           transform="translate(111.0949,260.5192)"
           id="g20"><path
             id="path22"
             style="fill:#000000;fill-opacity:1;fill-rule:nonzero;stroke:none"
             d="m 0,0 v -2.703 c 0,-0.589 -0.113,-1.148 -0.338,-1.669 -0.226,-0.522 -0.535,-0.98 -0.93,-1.37 -0.394,-0.394 -0.852,-0.707 -1.372,-0.929 -0.521,-0.227 -1.077,-0.341 -1.669,-0.341 -0.759,0 -1.492,0.2 -2.195,0.595 0.647,0.362 1.175,0.87 1.583,1.519 0.408,0.648 0.612,1.378 0.612,2.195 v 0.59 H -9.25 v -23.059 c 0,-0.617 -0.211,-1.138 -0.633,-1.56 -0.421,-0.422 -0.93,-0.635 -1.521,-0.635 -0.619,0 -1.138,0.213 -1.563,0.635 -0.422,0.422 -0.633,0.943 -0.633,1.56 v 11.488 4.223 3.696 c 0,1.084 0.007,1.955 0.021,2.618 0.014,0.662 0.023,1.006 0.023,1.034 h -4.139 c -0.592,0 -1.157,0.113 -1.689,0.34 -0.536,0.227 -1.001,0.526 -1.395,0.907 -0.395,0.381 -0.703,0.839 -0.93,1.374 -0.225,0.535 -0.338,1.098 -0.338,1.687 0,0.789 0.197,1.506 0.592,2.155 0.394,-0.649 0.914,-1.17 1.562,-1.56 0.649,-0.395 1.379,-0.595 2.198,-0.595 h 15.541 c 0.592,0 1.097,-0.208 1.519,-0.63 C -0.21,1.139 0,0.635 0,0.041 Z" /></g><g
           transform="translate(136.7321,245.3981)"
           id="g24"><path
             id="path26"
             style="fill:#000000;fill-opacity:1;fill-rule:nonzero;stroke:none"
             d="M 0,0 C 0,-0.59 -0.113,-1.152 -0.338,-1.687 -0.565,-2.223 -0.873,-2.685 -1.268,-3.08 -1.663,-3.474 -2.127,-3.787 -2.663,-4.009 -3.198,-4.236 -3.76,-4.35 -4.352,-4.35 c -0.787,0 -1.506,0.2 -2.152,0.595 0.646,0.394 1.168,0.911 1.563,1.56 0.392,0.648 0.589,1.379 0.589,2.195 v 3.002 h -9.418 v -13.134 c 0,-0.595 -0.211,-1.102 -0.632,-1.524 -0.422,-0.422 -0.944,-0.631 -1.563,-0.631 -0.592,0 -1.097,0.209 -1.522,0.631 -0.422,0.422 -0.633,0.929 -0.633,1.524 V 3.043 c -1.07,0.141 -1.957,0.617 -2.659,1.434 -0.706,0.816 -1.057,1.759 -1.057,2.83 0,0.816 0.197,1.551 0.592,2.199 0.365,-0.648 0.873,-1.179 1.519,-1.587 0.649,-0.408 1.381,-0.612 2.198,-0.612 h 15.329 c 0.619,0 1.141,-0.209 1.563,-0.631 C -0.213,6.254 0,5.747 0,5.152 V 5.111 Z" /></g><g
           transform="translate(162.5753,237.5016)"
           id="g28"><path
             id="path30"
             style="fill:#000000;fill-opacity:1;fill-rule:nonzero;stroke:none"
             d="M 0,0 C 0,-0.589 -0.111,-1.156 -0.338,-1.687 -0.562,-2.222 -0.873,-2.689 -1.266,-3.084 -1.66,-3.479 -2.125,-3.787 -2.66,-4.014 -3.195,-4.236 -3.758,-4.35 -4.35,-4.35 h -12.837 c -0.592,0 -1.1,0.214 -1.522,0.636 -0.422,0.422 -0.633,0.943 -0.633,1.56 v 12.926 c 0,0.816 -0.204,1.546 -0.612,2.195 -0.408,0.649 -0.937,1.152 -1.585,1.519 0.648,0.395 1.381,0.59 2.197,0.59 0.592,0 1.148,-0.109 1.667,-0.336 0.522,-0.226 0.98,-0.535 1.374,-0.929 0.393,-0.395 0.703,-0.853 0.928,-1.374 0.227,-0.522 0.338,-1.076 0.338,-1.665 V 0 H -4.35 v 13.049 c 0,0.621 0.211,1.143 0.635,1.564 0.422,0.422 0.928,0.636 1.52,0.636 0.591,0 1.097,-0.214 1.519,-0.636 0.424,-0.421 0.635,-0.943 0.635,-1.564 V 0.422 C -0.014,0.34 0,0.195 0,0" /></g><g
           transform="translate(188.8038,224.6207)"
           id="g32"><path
             id="path34"
             style="fill:#000000;fill-opacity:1;fill-rule:nonzero;stroke:none"
             d="M 0,0 C 0,-0.535 -0.177,-1.007 -0.528,-1.415 -0.88,-1.823 -1.324,-2.054 -1.859,-2.113 -1.887,-2.141 -1.93,-2.154 -1.984,-2.154 h -0.127 -0.043 c -0.141,0 -0.325,0.027 -0.549,0.086 L -13.6,0.717 c -1.181,0.313 -2.068,0.97 -2.66,1.986 -0.592,1.012 -0.732,2.114 -0.422,3.293 0.168,0.735 0.534,1.383 1.098,1.946 0.197,-0.735 0.563,-1.365 1.098,-1.9 0.535,-0.536 1.197,-0.917 1.984,-1.144 L -4.309,2.79 v 5.741 h -9.669 c -0.592,0 -1.157,0.114 -1.69,0.336 -0.535,0.227 -1,0.535 -1.394,0.93 -0.395,0.394 -0.704,0.862 -0.93,1.397 -0.225,0.531 -0.338,1.098 -0.338,1.687 v 10.853 c -1.014,0.168 -1.864,0.658 -2.554,1.456 -0.691,0.803 -1.036,1.742 -1.036,2.812 0,0.785 0.197,1.506 0.592,2.155 0.394,-0.649 0.914,-1.171 1.562,-1.565 0.649,-0.395 1.379,-0.59 2.198,-0.59 h 1.435 c 0.59,0 1.098,-0.213 1.52,-0.635 0.422,-0.422 0.635,-0.93 0.635,-1.519 v -0.254 -6.336 -2.322 c 0,-0.762 -0.009,-1.438 -0.023,-2.028 -0.014,-0.589 -0.02,-1.265 -0.02,-2.027 h 0.043 9.669 V 25.93 c 0,0.621 0.211,1.143 0.635,1.564 0.422,0.422 0.928,0.635 1.52,0.635 0.592,0 1.097,-0.213 1.521,-0.635 C -0.211,27.073 0,26.551 0,25.93 Z" /></g><g
           transform="translate(210.5031,248.5231)"
           id="g36"><path
             id="path38"
             style="fill:#000000;fill-opacity:1;fill-rule:nonzero;stroke:none"
             d="m 0,0 h -11.783 v -4.223 h 7.56 z m 3.887,-8.781 c 0.394,-0.648 0.592,-1.369 0.592,-2.154 0,-0.594 -0.114,-1.157 -0.338,-1.692 -0.227,-0.535 -0.536,-0.998 -0.93,-1.393 -0.395,-0.394 -0.859,-0.702 -1.395,-0.929 -0.535,-0.227 -1.097,-0.336 -1.689,-0.336 h -14.106 c -0.619,0 -1.14,0.209 -1.562,0.631 -0.422,0.422 -0.633,0.929 -0.633,1.524 0,0.054 0.007,0.104 0.021,0.145 0.013,0.041 0.02,0.09 0.02,0.15 V 1.102 c -0.451,0.39 -0.803,0.862 -1.054,1.415 -0.254,0.549 -0.381,1.143 -0.381,1.792 0,0.816 0.197,1.551 0.591,2.195 0.366,-0.644 0.872,-1.175 1.52,-1.583 0.648,-0.408 1.379,-0.612 2.197,-0.612 H 0.846 C 1.268,4.309 1.662,4.195 2.027,3.973 2.479,3.746 2.857,3.479 3.168,3.17 3.59,2.749 3.907,2.268 4.118,1.732 4.329,1.197 4.436,0.658 4.436,0.109 4.436,-0.44 4.329,-0.984 4.118,-1.52 3.907,-2.055 3.59,-2.531 3.168,-2.953 L -0.801,-6.926 C -1.195,-7.429 -1.689,-7.833 -2.279,-8.128 -2.871,-8.422 -3.504,-8.572 -4.18,-8.572 h -7.603 v -2.363 h 11.91 c 0.816,0 1.549,0.195 2.197,0.589 0.647,0.395 1.168,0.917 1.563,1.565" /></g><g
           transform="translate(240.7081,237.5426)"
           id="g40"><path
             id="path42"
             style="fill:#000000;fill-opacity:1;fill-rule:nonzero;stroke:none"
             d="M 0,0 C 0,-0.59 -0.113,-1.152 -0.338,-1.687 -0.564,-2.223 -0.873,-2.685 -1.268,-3.08 -1.662,-3.474 -2.12,-3.787 -2.64,-4.009 -3.161,-4.236 -3.717,-4.35 -4.309,-4.35 c -0.816,0 -1.548,0.2 -2.195,0.595 0.647,0.394 1.175,0.911 1.583,1.56 0.408,0.648 0.612,1.379 0.612,2.195 v 10.686 h -9.418 V -2.195 c 0,-0.59 -0.211,-1.098 -0.632,-1.52 -0.422,-0.422 -0.93,-0.635 -1.522,-0.635 -0.59,0 -1.098,0.213 -1.519,0.635 -0.422,0.422 -0.633,0.93 -0.633,1.52 v 12.966 c -1.071,0.141 -1.964,0.613 -2.683,1.416 -0.719,0.803 -1.077,1.751 -1.077,2.848 0,0.395 0.057,0.776 0.17,1.143 0.111,0.363 0.252,0.703 0.422,1.011 0.394,-0.648 0.914,-1.165 1.562,-1.56 0.647,-0.394 1.379,-0.594 2.196,-0.594 h 15.289 c 0.592,0 1.097,-0.208 1.519,-0.63 C -0.211,13.983 0,13.475 0,12.885 Z" /></g><g
           transform="translate(203.9796,223.1808)"
           id="g44"><path
             id="path46"
             style="fill:#000000;fill-opacity:1;fill-rule:nonzero;stroke:none"
             d="m 0,0 c -0.648,0 -1.19,0.213 -1.626,0.635 -0.437,0.422 -0.655,0.957 -0.655,1.606 0,0.616 0.218,1.147 0.655,1.583 C -1.19,4.259 -0.648,4.477 0,4.477 0.619,4.477 1.148,4.259 1.583,3.824 2.021,3.388 2.238,2.857 2.238,2.241 2.238,1.592 2.021,1.057 1.583,0.635 1.148,0.213 0.619,0 0,0" /></g><g
           transform="translate(202.255,266.0284)"
           id="g48"><path
             id="path50"
             style="fill:#000000;fill-opacity:1;fill-rule:nonzero;stroke:none"
             d="m 0,0 v -6.654 c 0,-0.294 -0.067,-0.571 -0.203,-0.83 -0.132,-0.259 -0.318,-0.486 -0.554,-0.682 -0.232,-0.196 -0.505,-0.35 -0.816,-0.462 -0.311,-0.111 -0.643,-0.168 -0.995,-0.168 -0.47,0 -0.906,0.091 -1.308,0.273 0.386,0.196 0.7,0.456 0.943,0.777 0.244,0.322 0.365,0.686 0.365,1.092 v 7.62 c 0,0.349 0.16,0.637 0.479,0.861 0.267,0.223 0.586,0.336 0.957,0.336 H 4.539 L 3.575,-0.004 Z" /></g><g
           transform="translate(206.7941,268.1915)"
           id="g52"><path
             id="path54"
             style="fill:#000000;fill-opacity:1;fill-rule:nonzero;stroke:none"
             d="M 0,0 C 0.371,0 0.689,-0.113 0.957,-0.336 1.276,-0.56 1.436,-0.848 1.436,-1.197 v -7.62 c 0,-0.406 0.121,-0.77 0.364,-1.092 0.243,-0.321 0.557,-0.581 0.944,-0.777 -0.403,-0.182 -0.838,-0.273 -1.308,-0.273 -0.352,0 -0.685,0.057 -0.996,0.168 -0.31,0.112 -0.583,0.266 -0.815,0.462 -0.236,0.196 -0.422,0.423 -0.555,0.682 -0.135,0.259 -0.203,0.536 -0.203,0.83 v 6.654" /></g><g
           transform="translate(275.13,192.109)"
           id="g56"><path
             id="path58"
             style="fill:#000000;fill-opacity:1;fill-rule:nonzero;stroke:none"
             d="m 0,0 h -2.703 c -0.589,0 -1.148,0.114 -1.669,0.338 -0.522,0.227 -0.98,0.535 -1.37,0.93 -0.395,0.395 -0.707,0.853 -0.93,1.372 -0.226,0.522 -0.34,1.077 -0.34,1.669 0,0.76 0.2,1.492 0.595,2.195 0.362,-0.646 0.87,-1.174 1.519,-1.583 0.648,-0.408 1.378,-0.612 2.195,-0.612 h 0.59 V 9.25 h -23.059 c -0.617,0 -1.139,0.211 -1.56,0.633 -0.422,0.422 -0.635,0.93 -0.635,1.522 0,0.619 0.213,1.138 0.635,1.562 0.421,0.422 0.943,0.633 1.56,0.633 h 11.488 4.223 3.696 c 1.084,0 1.955,-0.007 2.618,-0.02 0.662,-0.014 1.006,-0.023 1.034,-0.023 v 4.138 c 0,0.592 0.113,1.157 0.34,1.69 0.227,0.535 0.526,1 0.907,1.395 0.381,0.394 0.839,0.702 1.374,0.929 0.535,0.225 1.097,0.338 1.687,0.338 0.789,0 1.506,-0.197 2.155,-0.591 C 3.701,21.061 3.179,20.542 2.79,19.893 2.395,19.244 2.195,18.514 2.195,17.695 V 2.155 C 2.195,1.562 1.987,1.057 1.565,0.635 1.139,0.211 0.635,0 0.041,0 Z" /></g><g
           transform="translate(260.0089,166.4723)"
           id="g60"><path
             id="path62"
             style="fill:#000000;fill-opacity:1;fill-rule:nonzero;stroke:none"
             d="m 0,0 c -0.59,0 -1.152,0.113 -1.687,0.338 -0.536,0.227 -0.998,0.535 -1.393,0.93 -0.395,0.394 -0.707,0.859 -0.93,1.395 -0.226,0.535 -0.34,1.097 -0.34,1.689 0,0.787 0.2,1.505 0.595,2.152 0.394,-0.647 0.911,-1.168 1.56,-1.563 C -1.547,4.549 -0.816,4.352 0,4.352 h 3.002 v 9.418 h -13.134 c -0.595,0 -1.102,0.21 -1.524,0.632 -0.422,0.422 -0.631,0.944 -0.631,1.563 0,0.592 0.209,1.097 0.631,1.522 0.422,0.421 0.929,0.632 1.524,0.632 H 3.043 c 0.141,1.071 0.617,1.957 1.434,2.66 0.816,0.706 1.759,1.057 2.83,1.057 0.816,0 1.55,-0.197 2.199,-0.592 C 8.857,20.879 8.327,20.371 7.919,19.725 7.511,19.076 7.307,18.344 7.307,17.527 V 2.197 C 7.307,1.579 7.098,1.057 6.676,0.635 6.254,0.213 5.746,0 5.152,0 H 5.111 Z" /></g><g
           transform="translate(252.1124,140.629)"
           id="g64"><path
             id="path66"
             style="fill:#000000;fill-opacity:1;fill-rule:nonzero;stroke:none"
             d="M 0,0 C -0.59,0 -1.157,0.111 -1.687,0.338 -2.222,0.562 -2.689,0.873 -3.084,1.266 -3.479,1.66 -3.787,2.125 -4.014,2.66 -4.236,3.195 -4.35,3.758 -4.35,4.35 v 12.837 c 0,0.592 0.214,1.1 0.636,1.522 0.421,0.422 0.943,0.633 1.56,0.633 h 12.926 c 0.816,0 1.546,0.204 2.195,0.612 0.649,0.408 1.152,0.937 1.519,1.585 0.395,-0.648 0.59,-1.381 0.59,-2.197 0,-0.592 -0.109,-1.148 -0.336,-1.667 -0.226,-0.522 -0.535,-0.98 -0.929,-1.374 -0.395,-0.393 -0.853,-0.703 -1.374,-0.928 -0.522,-0.227 -1.076,-0.338 -1.665,-0.338 L 0,15.035 V 4.35 h 13.049 c 0.621,0 1.142,-0.211 1.564,-0.635 0.422,-0.422 0.636,-0.928 0.636,-1.52 0,-0.591 -0.214,-1.097 -0.636,-1.519 C 14.191,0.252 13.67,0.041 13.049,0.041 H 0.422 C 0.34,0.014 0.195,0 0,0" /></g><g
           transform="translate(239.2316,114.4005)"
           id="g68"><path
             id="path70"
             style="fill:#000000;fill-opacity:1;fill-rule:nonzero;stroke:none"
             d="M 0,0 C -0.535,0 -1.007,0.177 -1.415,0.528 -1.823,0.88 -2.055,1.324 -2.113,1.859 -2.141,1.887 -2.154,1.93 -2.154,1.984 v 0.127 0.043 c 0,0.141 0.027,0.325 0.086,0.549 L 0.717,13.6 c 0.313,1.181 0.97,2.067 1.986,2.66 1.012,0.592 2.114,0.732 3.293,0.421 C 6.731,16.514 7.379,16.148 7.942,15.584 7.207,15.386 6.577,15.021 6.042,14.486 5.506,13.951 5.125,13.289 4.898,12.502 L 2.79,4.309 h 5.741 v 9.669 c 0,0.592 0.114,1.157 0.336,1.689 0.227,0.536 0.535,1.001 0.93,1.395 0.394,0.395 0.862,0.703 1.397,0.93 0.53,0.225 1.097,0.338 1.687,0.338 h 10.853 c 0.168,1.014 0.658,1.864 1.456,2.553 0.803,0.692 1.742,1.037 2.812,1.037 0.785,0 1.506,-0.197 2.155,-0.592 -0.649,-0.394 -1.171,-0.914 -1.565,-1.562 -0.395,-0.649 -0.59,-1.379 -0.59,-2.198 v -1.436 c 0,-0.589 -0.213,-1.097 -0.635,-1.519 -0.422,-0.422 -0.93,-0.635 -1.519,-0.635 h -0.254 -6.336 -2.322 c -0.762,0 -1.438,0.009 -2.028,0.023 -0.59,0.014 -1.265,0.02 -2.027,0.02 V 13.978 4.309 H 25.93 c 0.621,0 1.142,-0.211 1.564,-0.636 0.422,-0.421 0.635,-0.927 0.635,-1.519 0,-0.592 -0.213,-1.097 -0.635,-1.522 C 27.072,0.211 26.551,0 25.93,0 Z" /></g><g
           transform="translate(263.1339,92.7013)"
           id="g72"><path
             id="path74"
             style="fill:#000000;fill-opacity:1;fill-rule:nonzero;stroke:none"
             d="m 0,0 v 11.783 h -4.223 v -7.56 z m -8.781,-3.887 c -0.649,-0.395 -1.37,-0.592 -2.155,-0.592 -0.593,0 -1.156,0.114 -1.691,0.338 -0.535,0.227 -0.998,0.535 -1.393,0.93 -0.394,0.395 -0.703,0.859 -0.929,1.395 -0.227,0.535 -0.336,1.097 -0.336,1.689 v 14.106 c 0,0.619 0.209,1.14 0.631,1.562 0.422,0.421 0.929,0.632 1.524,0.632 0.054,0 0.104,-0.006 0.145,-0.02 0.041,-0.013 0.09,-0.02 0.15,-0.02 H 1.102 c 0.39,0.451 0.862,0.803 1.415,1.054 0.549,0.254 1.143,0.381 1.792,0.381 0.816,0 1.55,-0.197 2.194,-0.591 C 5.859,16.611 5.329,16.105 4.921,15.457 4.513,14.809 4.309,14.078 4.309,13.259 V -0.846 C 4.309,-1.268 4.195,-1.662 3.973,-2.027 3.746,-2.479 3.479,-2.857 3.17,-3.168 2.748,-3.59 2.268,-3.907 1.732,-4.118 1.197,-4.329 0.657,-4.436 0.108,-4.436 c -0.548,0 -1.092,0.107 -1.628,0.318 -0.535,0.211 -1.011,0.528 -1.433,0.95 L -6.926,0.8 c -0.503,0.395 -0.907,0.889 -1.202,1.479 -0.295,0.592 -0.444,1.224 -0.444,1.9 v 7.604 h -2.364 v -11.91 c 0,-0.816 0.196,-1.549 0.59,-2.198 0.395,-0.646 0.916,-1.167 1.565,-1.562" /></g><g
           transform="translate(252.1534,62.4962)"
           id="g76"><path
             id="path78"
             style="fill:#000000;fill-opacity:1;fill-rule:nonzero;stroke:none"
             d="m 0,0 c -0.59,0 -1.152,0.113 -1.687,0.338 -0.536,0.226 -0.998,0.535 -1.393,0.93 -0.395,0.394 -0.707,0.852 -0.93,1.372 -0.226,0.521 -0.34,1.077 -0.34,1.669 0,0.816 0.2,1.548 0.595,2.195 0.394,-0.647 0.911,-1.175 1.56,-1.583 C -1.547,4.513 -0.816,4.309 0,4.309 h 10.686 v 9.418 H -2.195 c -0.59,0 -1.098,0.211 -1.52,0.632 -0.422,0.422 -0.635,0.93 -0.635,1.522 0,0.59 0.213,1.098 0.635,1.519 0.422,0.422 0.93,0.633 1.52,0.633 h 12.966 c 0.141,1.071 0.613,1.964 1.416,2.683 0.802,0.719 1.751,1.077 2.848,1.077 0.395,0 0.776,-0.057 1.143,-0.17 0.363,-0.111 0.703,-0.252 1.011,-0.422 -0.648,-0.394 -1.165,-0.914 -1.56,-1.562 -0.395,-0.647 -0.594,-1.379 -0.594,-2.196 V 2.154 C 15.035,1.563 14.826,1.057 14.404,0.635 13.983,0.211 13.475,0 12.885,0 Z" /></g><g
           transform="translate(237.7916,99.2243)"
           id="g80"><path
             id="path82"
             style="fill:#000000;fill-opacity:1;fill-rule:nonzero;stroke:none"
             d="M 0,0 C 0,0.649 0.213,1.191 0.635,1.626 1.057,2.064 1.592,2.282 2.241,2.282 2.857,2.282 3.388,2.064 3.823,1.626 4.259,1.191 4.477,0.649 4.477,0 4.477,-0.619 4.259,-1.147 3.823,-1.583 3.388,-2.021 2.857,-2.238 2.241,-2.238 1.592,-2.238 1.057,-2.021 0.635,-1.583 0.213,-1.147 0,-0.619 0,0" /></g><g
           transform="translate(280.6393,100.9494)"
           id="g84"><path
             id="path86"
             style="fill:#000000;fill-opacity:1;fill-rule:nonzero;stroke:none"
             d="m 0,0 h -6.654 c -0.294,0 -0.571,0.067 -0.83,0.203 -0.259,0.132 -0.486,0.318 -0.682,0.554 -0.196,0.232 -0.35,0.505 -0.462,0.816 -0.112,0.311 -0.168,0.643 -0.168,0.995 0,0.47 0.091,0.906 0.273,1.308 0.196,-0.386 0.455,-0.7 0.776,-0.943 0.323,-0.244 0.687,-0.365 1.093,-0.365 h 7.62 c 0.349,0 0.637,-0.16 0.861,-0.479 C 2.05,1.822 2.163,1.503 2.163,1.132 v -5.671 l -2.167,0.963 z" /></g><g
           transform="translate(282.8024,96.4103)"
           id="g88"><path
             id="path90"
             style="fill:#000000;fill-opacity:1;fill-rule:nonzero;stroke:none"
             d="M 0,0 C 0,-0.371 -0.113,-0.689 -0.336,-0.957 -0.56,-1.276 -0.848,-1.436 -1.197,-1.436 h -7.62 c -0.406,0 -0.77,-0.121 -1.093,-0.364 -0.321,-0.244 -0.58,-0.557 -0.776,-0.944 -0.182,0.403 -0.273,0.838 -0.273,1.308 0,0.352 0.056,0.685 0.168,0.995 0.112,0.311 0.266,0.584 0.462,0.816 0.196,0.236 0.423,0.422 0.682,0.555 0.259,0.135 0.536,0.202 0.83,0.202 h 6.654" /></g><g
           transform="translate(170.5182,158.1744)"
           id="g92"><path
             id="path94"
             style="fill:#ffe106;fill-opacity:1;fill-rule:nonzero;stroke:none"
             d="m 0,0 c 3.043,-1.32 5.714,-3.13 8.021,-5.434 2.302,-2.304 4.111,-5.021 5.429,-8.141 1.315,-3.13 1.975,-6.418 1.975,-9.874 0,-4.603 -1.152,-8.799 -3.456,-12.586 -2.138,3.787 -5.1,6.831 -8.885,9.13 -3.787,2.309 -8.062,3.456 -12.833,3.456 h -90.826 c -3.127,0 -5.8,0.989 -8.021,2.962 -2.222,1.973 -3.665,4.445 -4.32,7.406 -0.166,0.49 -0.247,1.393 -0.247,2.713 v 135.743 c 0,3.456 0.655,6.748 1.975,9.873 1.315,3.125 3.123,5.837 5.429,8.146 2.302,2.299 4.976,4.109 8.021,5.429 3.044,1.315 6.296,1.973 9.749,1.973 2.304,0 4.568,-0.331 6.787,-0.984 2.223,-0.663 4.237,-1.483 6.049,-2.468 -3.787,-2.308 -6.874,-5.351 -9.257,-9.134 -2.386,-3.787 -3.579,-8.064 -3.579,-12.835 V 1.973 h 78.24 C -6.293,1.973 -3.048,1.315 0,0" /></g><g
           transform="translate(116.7589,177.7926)"
           id="g96"><path
             id="path98"
             style="fill:#ffe106;fill-opacity:1;fill-rule:nonzero;stroke:none"
             d="m 0,0 c -2.302,3.787 -3.456,7.982 -3.456,12.586 0,3.456 0.66,6.748 1.975,9.873 1.32,3.125 3.127,5.802 5.429,8.02 2.306,2.222 5.023,3.991 8.146,5.306 3.127,1.32 6.417,1.977 9.871,1.977 H 104.4 c 3.622,0 6.665,-1.193 9.132,-3.578 2.467,-2.386 3.703,-5.388 3.703,-9.012 v -140.183 c 2.634,-2.304 4.688,-5.062 6.169,-8.268 1.481,-3.212 2.222,-6.704 2.222,-10.491 0,-4.771 -1.149,-9.048 -3.456,-12.835 -2.301,3.787 -5.345,6.871 -9.132,9.256 -3.783,2.386 -8.059,3.579 -12.833,3.579 l -88.853,-0.245 c -3.617,0 -6.663,1.234 -9.13,3.701 -2.47,2.467 -3.703,5.515 -3.703,9.13 0,0.168 0.043,0.29 0.125,0.372 0.084,0.086 0.122,0.208 0.122,0.367 h -0.247 l 0.247,0.989 c 0.166,0.495 0.247,0.948 0.247,1.356 0,0.413 0.084,0.785 0.248,1.111 l 7.896,31.594 c 0.825,3.457 2.265,6.5 4.32,9.13 2.059,2.636 4.442,4.813 7.157,6.541 2.715,1.728 5.719,2.88 9.01,3.456 3.293,0.576 6.662,0.454 10.118,-0.372 4.443,-1.148 8.309,-3.288 11.6,-6.418 -4.277,-1.315 -7.978,-3.533 -11.108,-6.663 -3.122,-3.12 -5.263,-6.989 -6.415,-11.597 l -4.443,-17.275 H 91.814 V 12.586 H 21.965 C 17.196,12.586 12.919,11.438 9.132,9.13 5.35,6.831 2.306,3.787 0,0" /></g></g></g></g></svg>